<svg width="26" height="27" viewBox="0 0 26 27" fill="none" xmlns="http://www.w3.org/2000/svg">
<circle cx="12.8587" cy="13.5364" r="12.5565" stroke="#BDBFC2" stroke-width="0.59256"/>
<path d="M11.7313 9.76855C11.6638 10.4204 11.3144 11.2057 11.0001 11.9078C10.7136 12.5477 10.4873 13.0532 10.4873 13.4068V18.7571C10.4873 19.4653 11.0516 20.0412 11.7456 20.0412H13.8427C14.5367 20.0412 15.101 19.4653 15.101 18.7571V13.4068C15.101 13.0532 14.8747 12.5477 14.5883 11.9078C14.2739 11.2057 13.9245 10.4204 13.857 9.76855" stroke="#142841" stroke-width="0.543077" stroke-linecap="round" stroke-linejoin="round"/>
<path d="M11.3525 16.5835V18.1432C11.3525 19.2095 11.4391 19.2195 12.3176 19.2123" stroke="#142841" stroke-width="0.543077" stroke-linecap="round"/>
<path d="M13.9056 8.28662H11.6811C11.4991 8.28662 11.3516 8.43403 11.3516 8.61587V9.14267C11.3516 9.32451 11.4991 9.47192 11.6811 9.47192H13.9056C14.0876 9.47192 14.2351 9.32451 14.2351 9.14267V8.61587C14.2351 8.43403 14.0876 8.28662 13.9056 8.28662Z" stroke="#142841" stroke-width="0.543077" stroke-linecap="round" stroke-linejoin="round"/>
<path d="M18.2527 8.7124L7.33789 19.6272" stroke="#142841" stroke-width="0.543077" stroke-linecap="round" stroke-linejoin="round"/>
</svg>
