<svg width="26" height="27" viewBox="0 0 26 27" fill="none" xmlns="http://www.w3.org/2000/svg">
<circle cx="12.8587" cy="13.7142" r="12.5565" stroke="#BDBFC2" stroke-width="0.59256"/>
<path d="M10.7695 11.4277H15.3597" stroke="#142841" stroke-width="0.543077" stroke-linecap="round" stroke-linejoin="round"/>
<path fill-rule="evenodd" clip-rule="evenodd" d="M13.0641 8.46436C12.3598 8.46436 11.7891 9.017 11.7891 9.69904V15.1317C11.7891 15.6379 12.1037 16.0715 12.5541 16.2626V17.3541H13.5741V16.2626C14.0245 16.0715 14.3392 15.6379 14.3392 15.1317V9.69904C14.3392 9.017 13.7684 8.46436 13.0641 8.46436Z" stroke="#142841" stroke-width="0.543077" stroke-linecap="round" stroke-linejoin="round"/>
<path fill-rule="evenodd" clip-rule="evenodd" d="M13.3039 15.1314C13.3039 15.2677 13.1932 15.3783 13.0567 15.3783C12.9203 15.3783 12.8096 15.2677 12.8096 15.1314V12.415H13.3039V15.1314Z" stroke="#142841" stroke-width="0.543077" stroke-linecap="round" stroke-linejoin="round"/>
<path fill-rule="evenodd" clip-rule="evenodd" d="M13.5747 19.3295C13.5747 19.6022 13.3467 19.8234 13.0647 19.8234C12.7827 19.8234 12.5547 19.6022 12.5547 19.3295C12.5547 19.0569 13.0647 18.3418 13.0647 18.3418C13.0647 18.3418 13.5747 19.0569 13.5747 19.3295Z" stroke="#142841" stroke-width="0.543077" stroke-linecap="round" stroke-linejoin="round"/>
<path d="M18.5222 8.64404L7.60742 19.5589" stroke="#142841" stroke-width="0.543077" stroke-linecap="round" stroke-linejoin="round"/>
</svg>
