<svg width="26" height="26" viewBox="0 0 26 26" fill="none" xmlns="http://www.w3.org/2000/svg">
<circle cx="12.8587" cy="13.1253" r="12.5565" stroke="#BDBFC2" stroke-width="0.59256"/>
<path fill-rule="evenodd" clip-rule="evenodd" d="M14.3524 9.49042C13.795 9.84554 13.5079 10.4939 14.3524 11.0382C14.8154 12.1438 15.6766 11.8462 16.1864 11.3332C16.6961 10.8202 16.9628 9.38915 16.5859 8.60596C15.772 9.19192 15.0469 9.04819 14.3524 9.49042Z" stroke="#142841" stroke-width="0.543077" stroke-linecap="round" stroke-linejoin="round"/>
<path fill-rule="evenodd" clip-rule="evenodd" d="M12.7425 7.92956C13.3421 8.60353 13.6593 9.4902 12.23 10.0855C11.5758 11.4803 10.5808 10.9637 9.9187 10.219C9.25661 9.47384 9.00382 7.48069 9.58673 6.42773C10.6613 7.29672 11.9939 7.08622 12.7425 7.92956Z" stroke="#142841" stroke-width="0.543077" stroke-linecap="round" stroke-linejoin="round"/>
<path d="M15.5101 10.1541C14.1211 10.8175 13.4266 12.5864 13.4266 12.5864C13.4266 12.5864 12.8414 9.99494 10.5264 8.00488" stroke="#142841" stroke-width="0.543077" stroke-linecap="round" stroke-linejoin="round"/>
<path fill-rule="evenodd" clip-rule="evenodd" d="M14.8001 14.0332C14.7983 13.5663 14.9573 13.11 15.2578 12.7207L11.5537 12.732C11.8569 13.1192 12.0202 13.5747 12.022 14.0416L12.0397 18.2873C12.0428 18.945 12.6664 19.4762 13.434 19.4738C14.2006 19.4713 14.8207 18.936 14.8174 18.2787L14.8001 14.0332Z" stroke="#142841" stroke-width="0.543077" stroke-linecap="round" stroke-linejoin="round"/>
<path d="M12.0478 14.0701L13.3857 14.0425" stroke="#142841" stroke-width="0.543077" stroke-linecap="round" stroke-linejoin="round"/>
<path d="M12.043 15.3912L12.9355 15.3726" stroke="#142841" stroke-width="0.543077" stroke-linecap="round" stroke-linejoin="round"/>
<path d="M12.0583 16.7234L13.3965 16.6953" stroke="#142841" stroke-width="0.543077" stroke-linecap="round" stroke-linejoin="round"/>
<path d="M19.2468 7.9751L8.33203 18.8899" stroke="#142841" stroke-width="0.543077" stroke-linecap="round" stroke-linejoin="round"/>
</svg>
