<svg width="26" height="27" viewBox="0 0 26 27" fill="none" xmlns="http://www.w3.org/2000/svg">
<circle cx="12.8587" cy="13.8304" r="12.5565" stroke="#BDBFC2" stroke-width="0.59256"/>
<path d="M12.7178 8.21826V19.5084" stroke="#142841" stroke-width="0.543077" stroke-linecap="round" stroke-linejoin="round"/>
<path fill-rule="evenodd" clip-rule="evenodd" d="M11.6997 9.9302V11.8951C10.4281 10.9205 10.1738 9.69245 10.1738 8.45654L11.6997 9.9302Z" stroke="#142841" stroke-width="0.543077" stroke-linecap="round" stroke-linejoin="round"/>
<path fill-rule="evenodd" clip-rule="evenodd" d="M11.6997 13.6216V15.5865C10.4281 14.6119 10.1738 13.3839 10.1738 12.1479L11.6997 13.6216Z" stroke="#142841" stroke-width="0.543077" stroke-linecap="round" stroke-linejoin="round"/>
<path fill-rule="evenodd" clip-rule="evenodd" d="M11.6997 17.313V19.2779C10.4281 18.3033 10.1738 17.0753 10.1738 15.8394L11.6997 17.313Z" stroke="#142841" stroke-width="0.543077" stroke-linecap="round" stroke-linejoin="round"/>
<path fill-rule="evenodd" clip-rule="evenodd" d="M13.7334 9.92922V11.8941C15.005 10.9195 15.2593 9.69147 15.2593 8.45557L13.7334 9.92922Z" stroke="#142841" stroke-width="0.543077" stroke-linecap="round" stroke-linejoin="round"/>
<path fill-rule="evenodd" clip-rule="evenodd" d="M13.7334 13.6216V15.5865C15.005 14.6119 15.2593 13.3839 15.2593 12.1479L13.7334 13.6216Z" stroke="#142841" stroke-width="0.543077" stroke-linecap="round" stroke-linejoin="round"/>
<path fill-rule="evenodd" clip-rule="evenodd" d="M13.7334 17.313V19.2779C15.005 18.3033 15.2593 17.0753 15.2593 15.8394L13.7334 17.313Z" stroke="#142841" stroke-width="0.543077" stroke-linecap="round" stroke-linejoin="round"/>
<path d="M18.1765 8.52979L7.26172 19.4446" stroke="#142841" stroke-width="0.543077" stroke-linecap="round" stroke-linejoin="round"/>
</svg>
