<svg width="30" height="30" viewBox="0 0 30 30" fill="none" xmlns="http://www.w3.org/2000/svg">
<path d="M1 25.2273L6.61115 19.6155C6.58702 19.6409 6.48922 19.6104 6.33681 19.4555C5.0858 18.1715 5.15438 16.2448 6.6302 14.7778C7.96377 13.4519 9.93237 13.2804 11.2977 14.6547C12.2223 15.5856 12.5881 16.2435 12.5766 17.4247C13.7565 17.412 14.4144 17.7777 15.3454 18.7036C16.7196 20.0689 16.5494 22.0375 15.2235 23.3698C13.7553 24.8457 11.8298 24.9142 10.5458 23.6632C10.3896 23.5121 10.3591 23.4143 10.3845 23.3889L4.77337 29" stroke="#142841" stroke-width="1.5" stroke-linejoin="round"/>
<path d="M28.9023 4.77269L23.2912 10.3845C23.3153 10.3591 23.4131 10.3896 23.5655 10.5445C24.8165 11.8285 24.748 13.7552 23.2721 15.2222C21.9386 16.5481 19.97 16.7196 18.6047 15.3453C17.68 14.4144 17.3143 13.7565 17.3257 12.5753C16.1458 12.588 15.4879 12.2223 14.557 11.2964C13.1827 9.93106 13.3529 7.96246 14.6789 6.63016C16.1471 5.15434 18.0725 5.08576 19.3565 6.33677C19.5127 6.48791 19.5432 6.5857 19.5178 6.61111L25.129 0.999956" stroke="#142841" stroke-width="1.5" stroke-linejoin="round"/>
</svg>
