<svg viewBox="0 0 39 39" fill="none" xmlns="http://www.w3.org/2000/svg">
<path fill-rule="evenodd" clip-rule="evenodd" d="M29.5093 14.7456C29.4759 14.779 29.516 14.9076 29.7215 15.1065C31.4108 16.7523 33.9438 16.662 35.8753 14.7205C37.6197 12.9678 37.8436 10.3779 36.0357 8.58173C34.811 7.36367 33.9455 6.88246 32.3932 6.89917C32.4083 5.34527 31.9271 4.47976 30.7107 3.25502C28.9145 1.44714 26.3247 1.67271 24.5702 3.41709C22.6287 5.34694 22.5385 7.88164 24.1843 9.57089C24.3848 9.77473 24.5134 9.81483 24.5452 9.78142L9.78142 24.5469C9.81483 24.5151 9.77473 24.3864 9.57088 24.1843C7.88164 22.5385 5.34694 22.6287 3.41709 24.5702C1.67271 26.3247 1.44714 28.9128 3.25502 30.7107C4.48143 31.9271 5.34527 32.4083 6.89917 32.3932C6.88246 33.9455 7.36367 34.811 8.58173 36.0357C10.3779 37.8453 12.9678 37.618 14.7205 35.8753C16.6637 33.9438 16.7523 31.4108 15.1065 29.7215C14.9076 29.516 14.779 29.4759 14.7456 29.5093L29.5093 14.7456Z" stroke="#142841" stroke-width="2.16625" stroke-linejoin="round"/>
</svg>
