<svg viewBox="0 0 38 34" fill="none" xmlns="http://www.w3.org/2000/svg">
<path fill-rule="evenodd" clip-rule="evenodd" d="M24.0413 12.5114C24.0413 18.8696 19.0357 24.0228 19.0357 24.0228C19.0357 24.0228 14.0317 18.8696 14.0317 12.5114C14.0317 6.1548 19.0357 1 19.0357 1C19.0357 1 24.0413 6.1548 24.0413 12.5114Z" stroke="#142841" stroke-width="1.63957" stroke-linejoin="round"/>
<path d="M22.8193 6.73786C25.5246 4.51789 28.4348 3.69482 28.4348 3.69482C28.4348 3.69482 30.7499 10.9466 28.1561 16.5589C25.5606 22.1744 19.0352 24.0238 19.0352 24.0238" stroke="#142841" stroke-width="1.63957" stroke-linejoin="round"/>
<path d="M29.3726 10.8108C32.6911 10.2927 35.6325 11.1437 35.6325 11.1437C35.6325 11.1437 34.7176 18.7971 30.135 22.355C25.5508 25.9112 19.0352 24.0241 19.0352 24.0241" stroke="#142841" stroke-width="1.63957" stroke-linejoin="round"/>
<path d="M15.4095 6.86756C12.66 4.55085 9.6366 3.69336 9.6366 3.69336C9.6366 3.69336 7.32153 10.9468 9.91532 16.559C12.5108 22.1746 19.0362 24.024 19.0362 24.024" stroke="#142841" stroke-width="1.63957" stroke-linejoin="round"/>
<path d="M8.74704 10.8173C5.40724 10.2845 2.43799 11.1436 2.43799 11.1436C2.43799 11.1436 3.35451 18.7971 7.93709 22.355C12.5213 25.9112 19.0353 24.024 19.0353 24.024C19.0353 24.024 19.0304 23.9798 19.0189 23.8978" stroke="#142841" stroke-width="1.63957" stroke-linejoin="round"/>
<path d="M5.11859 19.0327C2.54611 20.5001 1 22.3873 1 24.4662C1 29.2193 8.66497 33.0215 18.6253 33.0215C22.257 33.0215 26.4133 32.4558 28.0528 31.5721V26.414H36.8655C37.1065 23.1628 35.444 20.828 32.8863 19.2016" stroke="#142841" stroke-width="1.63957" stroke-linejoin="round"/>
</svg>
