<svg viewBox="0 0 35 26" fill="none" xmlns="http://www.w3.org/2000/svg">
<path d="M10.4126 11.8114C11.1122 5.94253 16.1066 1.39258 22.1649 1.39258C28.7005 1.39258 34 6.69077 34 13.2277C34 19.7646 28.7005 25.0628 22.1649 25.0628C19.569 25.0628 17.1705 24.2278 15.219 22.8115" stroke="#142841" stroke-width="1.57143" stroke-linecap="round" stroke-linejoin="round"/>
<path fill-rule="evenodd" clip-rule="evenodd" d="M16.9608 19.7662C13.8587 19.7662 12.207 18.1184 12.207 17.1729C12.207 16.2288 13.8587 14.5811 16.9608 14.5811C18.6887 14.5811 20.8493 15.4174 20.8493 17.1729C20.8493 18.9285 18.7426 19.7662 16.9608 19.7662Z" stroke="#142841" stroke-width="1.57143" stroke-linejoin="round"/>
<path d="M12.2065 17.1729C9.85793 17.1729 9.94867 15.4805 7.92223 15.4805C5.89711 15.4805 5.72616 19.3598 3.62082 19.3598C2.09541 19.3598 1.81531 17.9882 1 17.2308" stroke="#142841" stroke-width="1.57143" stroke-linecap="round" stroke-linejoin="round"/>
</svg>
