<svg width="25" height="25" viewBox="0 0 25 25" fill="none" xmlns="http://www.w3.org/2000/svg">
<path fill-rule="evenodd" clip-rule="evenodd" d="M23.6709 22.4985C23.6709 23.5985 22.7709 24.4985 21.6709 24.4985H2.6709C1.5699 24.4985 0.670898 23.5985 0.670898 22.4985V3.49854C0.670898 2.39754 1.5699 1.49854 2.6709 1.49854H21.6709C22.7709 1.49854 23.6709 2.39754 23.6709 3.49854V22.4985V22.4985Z" stroke="#142841" stroke-linecap="round" stroke-linejoin="round"/>
<path d="M0.670898 10.4986H4.6709L6.6709 7.49756L8.6709 10.4976L10.6709 5.99756L13.6709 15.4976L16.1709 3.49756L18.1709 10.4986H23.6709" stroke="#142841" stroke-linecap="round" stroke-linejoin="round"/>
<path d="M4.6709 21.4985V22.4985" stroke="#142841" stroke-linecap="round" stroke-linejoin="round"/>
<path d="M10.6709 21.4985V22.4985" stroke="#142841" stroke-linecap="round" stroke-linejoin="round"/>
<path d="M16.6709 21.4985V22.4985" stroke="#142841" stroke-linecap="round" stroke-linejoin="round"/>
<path d="M7.6709 19.4985V22.4985" stroke="#142841" stroke-linecap="round" stroke-linejoin="round"/>
<path d="M13.6709 19.4985V22.4985" stroke="#142841" stroke-linecap="round" stroke-linejoin="round"/>
<path d="M19.6709 19.4985V22.4985" stroke="#142841" stroke-linecap="round" stroke-linejoin="round"/>
</svg>
