<svg width="28" height="28" viewBox="0 0 28 28" fill="none" xmlns="http://www.w3.org/2000/svg">
<path fill-rule="evenodd" clip-rule="evenodd" d="M17.6129 5.11029C17.6129 7.37986 16.0353 9.22059 14.0898 9.22059C12.1436 9.22059 10.5667 7.37986 10.5667 5.11029C10.5667 2.84073 12.1436 1 14.0898 1C16.0353 1 17.6129 2.84073 17.6129 5.11029Z" stroke="#142841" stroke-width="1.5" stroke-linejoin="round"/>
<path d="M22.4641 27.0001H5.71991C2.60668 27.0001 2.52894 22.1516 5.71991 22.1516H22.4641C25.6611 22.1516 25.5702 27.0001 22.4641 27.0001Z" stroke="#142841" stroke-width="1.5" stroke-miterlimit="10" stroke-linecap="round" stroke-linejoin="round"/>
<path d="M22.2743 22.1387C22.2743 22.1387 17.446 22.1433 14.5101 24.4874C11.5742 26.8315 10.129 26.9871 8.09793 26.9871" stroke="#142841" stroke-width="1.5" stroke-miterlimit="10" stroke-linecap="round" stroke-linejoin="round"/>
<path d="M18.6132 21.587V17.8374V14.3113C19.6701 16.9095 19.734 19.2028 21.3194 20.9644C22.5663 22.3498 25.5471 22.7259 25.5471 22.7259" stroke="#142841" stroke-width="1.5" stroke-miterlimit="10" stroke-linecap="round" stroke-linejoin="round"/>
<path d="M25.5486 22.726C25.5486 22.726 26.077 22.726 26.6055 22.1388C27.134 21.5516 26.6055 20.3772 26.6055 20.3772C26.6055 20.3772 23.5226 19.5421 22.9062 17.4413C22.0906 14.6615 21.8926 13.442 21.0913 12.3062C20.29 11.1705 18.8972 10.3951 17.9878 10.3951H15.6839V9.2207" stroke="#142841" stroke-width="1.5" stroke-miterlimit="10" stroke-linecap="round" stroke-linejoin="round"/>
<path d="M9.22717 21.587V17.8374V14.3113C8.17034 16.9095 8.10637 19.2028 6.52097 20.9644C5.27413 22.3498 2.29324 22.7259 2.29324 22.7259" stroke="#142841" stroke-width="1.5" stroke-miterlimit="10" stroke-linecap="round" stroke-linejoin="round"/>
<path d="M2.29182 22.726C2.29182 22.726 1.76337 22.726 1.23489 22.1388C0.706403 21.5516 1.23492 20.3772 1.23492 20.3772C1.23492 20.3772 4.31781 19.5421 4.93418 17.4413C5.74976 14.6616 5.9478 13.442 6.74912 12.3063C7.55043 11.1705 8.94317 10.3951 9.85256 10.3951H12.1565V8.63354" stroke="#142841" stroke-width="1.5" stroke-miterlimit="10" stroke-linecap="round" stroke-linejoin="round"/>
</svg>
