<svg viewBox="0 0 38 26" fill="none" xmlns="http://www.w3.org/2000/svg">
<path fill-rule="evenodd" clip-rule="evenodd" d="M7.26074 22.913C7.26074 23.777 7.96196 24.4783 8.82596 24.4783H13.5216C14.3872 24.4783 15.0868 23.777 15.0868 22.913V2.56522C15.0868 1.69965 14.3872 1 13.5216 1H8.82596C7.96196 1 7.26074 1.69965 7.26074 2.56522V22.913Z" stroke="#142841" stroke-width="1.67702" stroke-linecap="round" stroke-linejoin="round"/>
<path d="M15.0869 13.522H22.913" stroke="#142841" stroke-width="1.67702" stroke-linecap="round" stroke-linejoin="round"/>
<path fill-rule="evenodd" clip-rule="evenodd" d="M2.56494 16.652C2.56494 17.516 3.26616 18.2173 4.13016 18.2173H7.26059V7.26074H4.13016C3.26616 7.26074 2.56494 7.96039 2.56494 8.82596V16.652Z" stroke="#142841" stroke-width="1.67702" stroke-linecap="round" stroke-linejoin="round"/>
<path d="M2.56522 12.7393H1" stroke="#142841" stroke-width="1.67702" stroke-linecap="round" stroke-linejoin="round"/>
<path fill-rule="evenodd" clip-rule="evenodd" d="M30.7397 22.913C30.7397 23.777 30.04 24.4783 29.1744 24.4783H24.4788C23.6148 24.4783 22.9136 23.777 22.9136 22.913V2.56522C22.9136 1.69965 23.6148 1 24.4788 1H29.1744C30.04 1 30.7397 1.69965 30.7397 2.56522V22.913Z" stroke="#142841" stroke-width="1.67702" stroke-linecap="round" stroke-linejoin="round"/>
<path fill-rule="evenodd" clip-rule="evenodd" d="M35.4349 16.652C35.4349 17.516 34.7353 18.2173 33.8697 18.2173H30.7393V7.26074H33.8697C34.7353 7.26074 35.4349 7.96039 35.4349 8.82596V16.652Z" stroke="#142841" stroke-width="1.67702" stroke-linecap="round" stroke-linejoin="round"/>
<path d="M35.4346 12.7393H36.9998" stroke="#142841" stroke-width="1.67702" stroke-linecap="round" stroke-linejoin="round"/>
</svg>
