<svg viewBox="0 0 35 39" fill="none" xmlns="http://www.w3.org/2000/svg">
<path d="M10.2143 26.6396V30.9473L4.05607 32.159C2.22397 32.8148 1 34.5501 1 36.4974V37.858H27.1072V36.4974C27.1072 34.5501 25.8817 32.8148 24.0496 32.159L17.8929 30.9473V26.6396" stroke="#142841" stroke-width="1.84288" stroke-linejoin="round"/>
<path fill-rule="evenodd" clip-rule="evenodd" d="M21.7322 18.6611C21.7322 23.7489 18.2937 27.8754 14.0536 27.8754C9.81193 27.8754 6.375 23.7489 6.375 18.6611C6.375 13.5732 9.81193 9.44678 14.0536 9.44678C18.2937 9.44678 21.7322 13.5732 21.7322 18.6611Z" stroke="#142841" stroke-width="1.84288" stroke-linejoin="round"/>
<path d="M21.6608 17.8205C21.4028 17.8527 21.2247 17.842 20.9651 17.8926C18.3498 18.3964 16.6697 17.4488 15.2308 14.9287C14.3662 16.5842 11.6648 17.8926 9.44727 17.8926C8.35537 17.8926 7.41551 17.6684 6.47412 17.177" stroke="#142841" stroke-width="1.84288" stroke-linejoin="round"/>
<path d="M25.5708 7.14307H33.2494L25.5708 14.8216H33.2494" stroke="#142841" stroke-width="1.84288" stroke-linecap="round" stroke-linejoin="round"/>
<path d="M16.3564 1H20.9636L16.3564 5.60715H20.9636" stroke="#142841" stroke-width="1.84288" stroke-linecap="round" stroke-linejoin="round"/>
</svg>
